{"title":"Green.Zone.2010.1080p.BluRay.DTS.x264-LTT","uid":5626598,"size":7406395069,"categoryP":"video","categoryS":"hd___movies","magnet":"?xt=urn:btih:2e246448a17239f99f4c29604aadf5412e1e9789&amp;dn=Green.Zone.2010.1080p.BluRay.DTS.x264-LTT&amp;tr=udp%3A%2F%2Ftracker.openbittorrent.com%3A80&amp;tr=udp%3A%2F%2Fopen.demonii.com%3A1337&amp;tr=udp%3A%2F%2Ftracker.coppersurfer.tk%3A6969&amp;tr=udp%3A%2F%2Fexodus.desync.com%3A6969","seeders":0,"leechers":1,"uploader":"Ltt_01","files":3,"time":1276502588,"description":"Green.Zone.2010.1080p.BluRay.mkv\n********************************\n\nTiTLE......  Green Zone\nYEAR.......  2010\nGENRE......  Action | Drama | Thriller | War\niMDB RATE..  User Rating: 7.2/10 (11,834 votes)\niMDB URL... &lt;a href=&quot; http://www.imdb.com/title/tt0947810/&quot; rel=&quot;nofollow&quot; target=&quot;_NEW&quot;&gt; http://www.imdb.com/title/tt0947810/&lt;/a&gt;\n*************************************************\n\nVideo\nDuration                         : 1h 54mn\nOverall bit rate                 : 8 604 Kbps\nWidth                            : 1 920 pixels\nHeight                           : 816 pixels\nDisplay aspect ratio             : 2.35:1\nFrame rate                       : 23.976 fps\nStream size                      : 5.54 GiB (80%)\n\nAudio\nFormat                           : DTS\nBit rate                         : 1 510 Kbps\nChannel(s)                       : 6 channels\nChannel positions                : Front: L C R, Surround: L R, LFE\nSampling rate                    : 48.0 KHz\nResolution                       : 24 bits\nStream size                      : 1.21 GiB (18%)\nLanguage                         : English\n\nSubtitles: English, French\n**************************\n\n\n","torrent":{"xt":"urn:btih:2e246448a17239f99f4c29604aadf5412e1e9789","amp;dn":"Green.Zone.2010.1080p.BluRay.DTS.x264-LTT","amp;tr":["udp%3A%2F%2Ftracker.openbittorrent.com%3A80","udp%3A%2F%2Fopen.demonii.com%3A1337","udp%3A%2F%2Ftracker.coppersurfer.tk%3A6969","udp%3A%2F%2Fexodus.desync.com%3A6969"],"infoHash":"2e246448a17239f99f4c29604aadf5412e1e9789","infoHashBuffer":{"type":"Buffer","data":[46,36,100,72,161,114,57,249,159,76,41,96,74,173,245,65,46,30,151,137]},"announce":[],"urlList":[]}}